<svg width="64" height="64" viewBox="0 0 64 64" fill="none" xmlns="http://www.w3.org/2000/svg">
<g clip-path="url(#clip0_19886_19038)">
<path d="M64 0H0V64H64V0Z" fill="#ADB0D9"/>
<path d="M47.8592 17.3824C48.1024 16.4864 48.7552 15.6288 48.5888 14.72C48.4608 14.016 48.1664 13.2864 48.256 12.5568C48.32 12.0192 49.1264 10.4064 49.8304 10.5984C50.112 10.6752 50.2528 10.9952 50.3424 11.264C50.8544 12.736 51.264 13.9904 51.4304 15.5648C51.5968 17.152 51.6352 18.752 51.5712 20.352C51.5328 21.3376 51.4432 22.336 51.0464 23.232C50.7008 24.0256 50.112 24.7168 49.3952 25.1904C49.1904 24.7424 48.7552 24.4608 48.4352 24.0896C47.9232 23.5136 47.68 22.7584 47.5392 22.0032C47.5392 20.4032 47.4368 18.9696 47.8592 17.3824Z" fill="#444DF2"/>
<path d="M46.3743 32C46.1183 30.9504 46.2207 29.8496 46.3231 28.7744C46.4511 27.4816 46.8351 26.1376 47.6287 25.1904C48.2431 24.4608 49.1135 23.9744 50.2911 23.9488C51.0719 23.936 52.1983 24.128 52.6463 24.832C53.1071 25.5744 53.2223 26.816 53.1583 27.648C53.0687 28.7744 52.6079 29.8112 52.1599 30.8224C51.6735 31.936 51.0335 34.3296 49.5487 34.432C47.9999 34.5472 46.7327 33.4464 46.3743 32Z" fill="#F5B18F"/>
<path d="M38.1311 64H9.65112C9.75352 63.5648 9.85592 63.1296 9.95832 62.6944C11.9935 53.9648 12.7871 45.5041 12.9023 36.3521C20.1087 39.0145 27.6863 37.8753 35.1231 37.7601C37.8879 37.7217 36.9663 40.8577 36.9919 43.7889C37.0303 47.4497 37.1711 51.0977 37.3887 54.7329C37.5679 57.8305 37.8239 60.928 38.1311 64Z" fill="#F5B18F"/>
<path d="M50.6752 20.736C50.3808 24.3968 49.9328 28.0576 49.6896 31.7312C49.5872 33.3568 49.5232 34.9696 49.5232 36.5952C49.536 41.6128 50.1376 47.0528 47.3728 51.2384C45.3376 54.3104 41.7408 56.1152 38.08 56.5888C35.4304 56.9344 32.7808 56.6144 30.1952 56.0384C26.1632 55.1552 22.0288 53.5424 18.6112 51.0464C16.512 49.5104 14.6944 47.6416 13.3504 45.3888C12.0576 43.2384 11.2896 40.8192 10.8928 38.3232C10.688 37.0048 10.5856 35.6608 10.5728 34.3168C10.5472 31.8208 10.8032 29.3248 11.1616 26.8544C11.6736 23.3216 12.1728 19.584 14.1824 16.5376C16.064 13.696 18.8544 11.4816 21.9648 10.112C27.1616 7.8336 33.0368 7.68 38.7072 8.0256C40.7168 8.1536 42.7392 8.3328 44.6464 8.9728C46.5536 9.6128 48.3456 10.752 49.4336 12.4288C50.9824 14.8224 50.9056 17.8944 50.6752 20.736Z" fill="#FEC29B"/>
<path d="M30.8828 33.3393C31.9057 33.2721 32.6429 31.8166 32.5295 30.0883C32.416 28.36 31.4949 27.0133 30.472 27.0805C29.4491 27.1476 28.7118 28.6031 28.8253 30.3314C28.9387 32.0598 29.8599 33.4064 30.8828 33.3393Z" fill="#1B1464"/>
<path d="M42.9294 31.6624C43.9523 31.5953 44.6896 30.1398 44.5761 28.4114C44.4627 26.6831 43.5415 25.3364 42.5186 25.4036C41.4957 25.4707 40.7585 26.9262 40.8719 28.6546C40.9854 30.3829 41.9065 31.7295 42.9294 31.6624Z" fill="#1B1464"/>
<path d="M27.4458 24.4122C28.05 24.0525 29.0138 23.7158 29.9815 23.6544C30.9543 23.593 31.7953 23.8131 32.329 24.3891L33.362 23.4317C32.425 22.4205 31.0823 22.1734 29.8919 22.249C28.6964 22.3245 27.5162 22.7315 26.7252 23.2026L27.4458 24.4122ZM32.329 24.3891C32.594 24.6746 33.0394 24.6912 33.3236 24.4262C33.609 24.1613 33.6257 23.7158 33.3607 23.4317L32.329 24.3891ZM26.7239 23.2038C26.3898 23.4035 26.281 23.8349 26.4794 24.169C26.6791 24.503 27.1105 24.6118 27.4445 24.4134L26.7239 23.2038Z" fill="#1B1464"/>
<path d="M42.6495 22.8864C42.9913 23.5021 42.99 23.5021 42.99 23.5021C42.99 23.5021 42.9913 23.5021 42.9926 23.5008C42.9951 23.4995 43.0015 23.4957 43.0105 23.4919C43.0271 23.4829 43.0553 23.4688 43.0924 23.4509C43.1666 23.4151 43.278 23.3651 43.4175 23.3101C43.7004 23.1987 44.087 23.0746 44.5158 23.0119C45.3734 22.8864 46.3001 23.0119 46.9938 23.8682L48.087 22.9811C46.9631 21.5962 45.445 21.4541 44.3122 21.6192C43.7465 21.7024 43.2511 21.8624 42.9017 22.0007C42.725 22.0698 42.5817 22.1351 42.4818 22.1837C42.4306 22.208 42.391 22.2285 42.3628 22.2439C42.3487 22.2515 42.3372 22.2579 42.3282 22.2618C42.3244 22.2643 42.3206 22.2656 42.318 22.2682C42.3167 22.2695 42.3154 22.2695 42.3142 22.2707C42.3142 22.2707 42.3129 22.2707 42.3129 22.272C42.309 22.2707 42.3078 22.2707 42.6495 22.8864ZM46.9926 23.8682C47.237 24.1703 47.6812 24.2163 47.9833 23.9719C48.2854 23.7274 48.3314 23.2832 48.087 22.9811L46.9926 23.8682ZM42.3078 22.2707C41.9673 22.4589 41.8444 22.8877 42.0338 23.2282C42.222 23.5687 42.6508 23.6915 42.9913 23.5021L42.3078 22.2707Z" fill="#1B1464"/>
<path d="M30.0289 44.2214C32.2049 46.3014 35.3332 47.3292 38.3169 46.9708L38.1492 45.5731C35.5777 45.8816 32.8692 44.9894 31.0004 43.2025L30.0289 44.2214ZM38.3169 46.9708C38.7035 46.9248 38.9787 46.574 38.9326 46.1875C38.8865 45.8009 38.5358 45.5257 38.1492 45.5718L38.3169 46.9708ZM31.0017 43.2025C30.7201 42.9337 30.2747 42.944 30.0059 43.2256C29.7371 43.5072 29.7473 43.9526 30.0289 44.2214L31.0017 43.2025Z" fill="#1B1464"/>
<path d="M50.5473 13.4016C49.4849 16.5888 44.5569 17.1392 41.7409 17.4464C37.4529 17.92 33.6385 16.96 29.5169 16C28.9793 15.872 22.0289 14.1696 22.0289 14.1696C21.6705 17.728 20.8641 20.8768 18.7009 23.7312C17.7665 24.96 18.5857 26.496 18.4449 28.1088C18.2785 30.1696 18.2145 32.6784 17.5745 34.6496C17.4977 34.9056 17.2545 35.1232 16.9857 35.0848C16.6145 35.0336 16.4993 34.5856 16.3585 34.24C16.0385 33.4336 15.1297 32.704 14.2337 33.088C13.3889 33.4592 12.9665 34.7776 12.5313 35.5072C12.1217 36.1984 11.4817 36.7872 11.2513 37.5552C11.1745 37.8112 11.1489 38.08 11.0337 38.3232C10.9185 38.5664 10.6881 38.784 10.4193 38.784C10.2273 38.784 10.0481 38.656 9.90731 38.528C8.51211 37.3248 8.2817 35.7376 7.8081 34.0992C7.2705 32.1792 7.0529 30.1952 6.8609 28.224C6.7457 26.944 6.6433 25.6512 6.4769 24.3712C6.3361 23.2576 6.0289 22.1568 6.0161 21.0304C5.9649 17.3952 6.72011 13.7088 8.49931 10.56C10.8289 6.46403 15.5777 4.30083 19.8401 3.17443C26.8545 1.33123 33.8561 2.34243 40.6785 4.51843C43.4305 5.40163 51.8529 9.52323 50.5473 13.4016Z" fill="#444DF2"/>
<path d="M40.2816 32.8358C39.7184 32.3238 39.319 32.0333 39.0207 31.6403C38.7775 31.3178 38.6419 30.9632 38.7366 30.3859L37.3465 30.1581C37.1852 31.1424 37.44 31.8822 37.8969 32.4877C38.3001 33.0214 38.9107 33.4925 39.3343 33.8778L40.2816 32.8358ZM41.4976 35.6058C41.5296 34.5498 41.047 33.5232 40.279 32.8333L39.3382 33.8803C39.8246 34.3168 40.1088 34.9542 40.0908 35.5622L41.4976 35.6058ZM34.7967 38.1005C35.9308 38.7571 37.4924 39.127 38.8377 38.8595C39.5238 38.7238 40.1855 38.4141 40.6847 37.8547C41.1891 37.2902 41.4707 36.5325 41.4963 35.6032L40.0883 35.5635C40.0691 36.2214 39.8784 36.6426 39.6326 36.9178C39.383 37.1981 39.022 37.3875 38.5612 37.4784C37.6153 37.6666 36.3993 37.4029 35.4982 36.8806L34.7967 38.1005ZM38.7366 30.3859C38.7993 30.0019 38.5395 29.6397 38.1555 29.577C37.7715 29.5142 37.4092 29.7741 37.3465 30.1581L38.7366 30.3859ZM39.8079 33.3568L39.3343 33.8778C39.3356 33.879 39.3369 33.8803 39.3382 33.8803L39.8079 33.3568ZM40.7936 35.584L40.0896 35.5622V35.5635L40.7936 35.584ZM35.5007 36.8819C35.1641 36.6874 34.734 36.8026 34.5382 37.1392C34.3436 37.4758 34.4588 37.9059 34.7955 38.1018L35.5007 36.8819Z" fill="#1B1464"/>
<path d="M14.8608 25.8432C14.0416 24.8704 12.9024 24.2304 11.3408 24.192C9.04959 24.1408 6.84799 25.7152 6.02879 27.8528C4.69759 31.296 6.92479 35.5072 9.93279 37.2736C12.608 38.848 15.744 37.9264 16.5248 34.816C16.8704 33.4336 16.7296 31.9744 16.6016 30.5664C16.4224 28.864 15.9104 27.0976 14.8608 25.8432Z" fill="#FEC29B"/>
<path d="M13.4144 31.2832C13.5079 30.5856 13.5066 30.5856 13.5066 30.5856C13.5066 30.5856 13.5066 30.5856 13.5053 30.5856H13.504C13.5028 30.5856 13.5015 30.5856 13.5002 30.5856C13.4963 30.5856 13.4925 30.5843 13.4874 30.5843C13.4772 30.583 13.4631 30.5817 13.4464 30.5792C13.4119 30.5753 13.3645 30.5702 13.3044 30.5664C13.1853 30.5574 13.0189 30.5472 12.8218 30.5459C12.4314 30.5433 11.8938 30.574 11.3498 30.7149C10.8109 30.8544 10.2055 31.118 9.75491 31.6275C9.28515 32.1574 9.05091 32.8768 9.12899 33.7766L10.5319 33.655C10.482 33.0828 10.6317 32.7616 10.8096 32.5606C11.0068 32.3379 11.314 32.1779 11.7031 32.078C12.0871 31.9782 12.4928 31.9526 12.8154 31.9539C12.9741 31.9552 13.1047 31.9628 13.1956 31.9692C13.2404 31.9731 13.2749 31.9756 13.2967 31.9782C13.3082 31.9795 13.3159 31.9808 13.3197 31.9808C13.3223 31.9808 13.3236 31.9808 13.3236 31.9808C13.321 31.9808 13.321 31.9808 13.4144 31.2832ZM8.93443 28.5952C9.03939 29.2915 9.03939 29.2915 9.03939 29.2915C9.03939 29.2915 9.04195 29.2915 9.04451 29.2902C9.04963 29.2889 9.05859 29.2889 9.07011 29.2864C9.09443 29.2838 9.13283 29.2787 9.18403 29.2736C9.28515 29.2633 9.43363 29.2531 9.61411 29.2492C9.97763 29.2416 10.4512 29.2646 10.9184 29.3747C11.3882 29.4848 11.8119 29.6742 12.1242 29.9686C12.4211 30.2502 12.6618 30.6675 12.7143 31.3344L14.1184 31.2269C14.0416 30.231 13.6589 29.4796 13.0919 28.9446C12.5402 28.4236 11.8592 28.1484 11.2423 28.0025C10.6215 27.8566 10.0224 27.831 9.58724 27.84C9.36708 27.8438 9.18403 27.8579 9.05347 27.8694C8.98819 27.8758 8.93571 27.8822 8.89859 27.886C8.87939 27.8886 8.86531 27.8899 8.85379 27.8924C8.84867 27.8937 8.84355 27.8937 8.83971 27.8937C8.83843 27.8937 8.83588 27.8937 8.83588 27.895H8.83459C8.83459 27.895 8.83459 27.895 8.83331 27.895C8.82947 27.8988 8.82947 27.8988 8.93443 28.5952ZM9.12899 33.7766C9.16227 34.1645 9.50404 34.4512 9.89188 34.4166C10.2797 34.3833 10.5664 34.0416 10.5319 33.6537L9.12899 33.7766ZM13.4144 31.2832L13.321 31.9808C13.5309 32.0089 13.7434 31.9398 13.8983 31.7939C14.0532 31.648 14.1325 31.4406 14.1159 31.2281L13.4144 31.2832ZM8.82947 27.8988C8.44547 27.9577 8.18051 28.3161 8.23939 28.7001C8.29827 29.0841 8.65667 29.3491 9.04067 29.2902L8.82947 27.8988Z" fill="#F4AC7D"/>
<path d="M36.6399 55.8093C31.3382 56.0461 25.0508 54.4167 20.6655 51.4855L19.8835 52.6554C24.535 55.7658 31.1244 57.4644 36.7027 57.2148L36.6399 55.8093ZM20.6668 51.4855C20.343 51.2692 19.9065 51.3562 19.6902 51.68C19.4739 52.0039 19.5609 52.4404 19.8847 52.6567L20.6668 51.4855ZM36.7039 57.2148C37.0918 57.1968 37.3926 56.8679 37.3759 56.48C37.3593 56.0922 37.0291 55.7914 36.6412 55.808L36.7039 57.2148Z" fill="#1B1464"/>
</g>
<defs>
<clipPath id="clip0_19886_19038">
<rect width="64" height="64" rx="32" fill="white"/>
</clipPath>
</defs>
</svg>
